<?xml version="1.0" encoding="utf-8"?>
<!-- Generator: Adobe Illustrator 26.0.2, SVG Export Plug-In . SVG Version: 6.00 Build 0)  -->
<svg version="1.1" id="Warstwa_1" xmlns="http://www.w3.org/2000/svg" xmlns:xlink="http://www.w3.org/1999/xlink" x="0px" y="0px"
	 width="200px" height="200px" viewBox="0 0 200 200" enable-background="new 0 0 200 200" xml:space="preserve">
<path fill="#E77832" d="M102.88,20.42h-5.75V0h5.75V20.42z M62.7,29.65L52.49,11.96l-4.98,2.88l10.21,17.69L62.7,29.65z
	 M32.52,57.72L14.84,47.51l-2.88,4.98L29.65,62.7L32.52,57.72z M20.42,97.12H0v5.75h20.42V97.12z M32.52,142.28l-2.88-4.98
	l-17.69,10.21l2.88,4.98L32.52,142.28z M62.7,170.35l-4.98-2.88l-10.21,17.69l4.98,2.88L62.7,170.35z M102.88,179.58h-5.75V200h5.75
	V179.58z M152.49,185.16l-10.21-17.69l-4.98,2.88l10.21,17.69L152.49,185.16z M188.04,147.51l-17.69-10.21l-2.88,4.98l17.69,10.21
	L188.04,147.51z M200,97.12h-20.42v5.75H200V97.12z M188.04,52.49l-2.88-4.98l-17.69,10.21l2.88,4.98L188.04,52.49z M152.49,14.83
	l-4.98-2.88L137.3,29.65l4.98,2.87L152.49,14.83z"/>
<path fill="#F0F0F0" d="M100,28.21c-39.58,0-71.79,32.2-71.79,71.79c0,39.58,32.2,71.79,71.79,71.79s71.79-32.2,71.79-71.79
	C171.79,60.42,139.59,28.21,100,28.21z M100,166.04c-36.41,0-66.04-29.62-66.04-66.04c0-36.41,29.62-66.04,66.04-66.04
	s66.04,29.62,66.04,66.04C166.04,136.41,136.41,166.04,100,166.04z"/>
</svg>
