<?xml version="1.0" encoding="utf-8"?>
<!-- Generator: Adobe Illustrator 26.0.2, SVG Export Plug-In . SVG Version: 6.00 Build 0)  -->
<svg version="1.1" id="Warstwa_1" xmlns="http://www.w3.org/2000/svg" xmlns:xlink="http://www.w3.org/1999/xlink" x="0px" y="0px"
	 width="200px" height="200px" viewBox="0 0 200 200" enable-background="new 0 0 200 200" xml:space="preserve">
<g>
	<path fill="#E77832" d="M106.46,171.82c-12.44,0-24.72-3.26-35.78-9.65c-16.61-9.59-28.49-25.07-33.45-43.59
		C26.99,80.34,49.76,40.9,87.99,30.66c15.86-4.25,32.85-2.9,47.83,3.79l7.5,3.35l-8.45,2.17c-13.07,3.5-23.99,11.88-30.75,23.6
		c-6.76,11.72-8.56,25.37-5.06,38.43c3.5,13.07,11.88,23.99,23.6,30.76c11.71,6.76,25.36,8.56,38.43,5.06l0.5-0.15l7.9-2.18
		l-4.81,6.63c-9.63,13.29-23.67,22.95-39.53,27.2C118.97,171,112.69,171.82,106.46,171.82z M106.54,33.97
		c-5.73,0-11.47,0.74-17.06,2.24c-35.17,9.42-56.12,45.71-46.7,80.88c4.57,17.04,15.49,31.28,30.77,40.1
		c15.28,8.82,33.08,11.16,50.11,6.6c12.04-3.23,22.93-9.84,31.35-18.92c-12.16,1.55-24.43-0.9-35.22-7.13
		c-13.05-7.53-22.38-19.69-26.28-34.25s-1.9-29.75,5.63-42.8c6.23-10.8,15.63-19.05,26.94-23.78
		C119.75,34.96,113.15,33.97,106.54,33.97z"/>
</g>
</svg>
