<?xml version="1.0" encoding="utf-8"?>
<!-- Generator: Adobe Illustrator 26.0.2, SVG Export Plug-In . SVG Version: 6.00 Build 0)  -->
<svg version="1.1" id="Warstwa_1" xmlns="http://www.w3.org/2000/svg" xmlns:xlink="http://www.w3.org/1999/xlink" x="0px" y="0px"
	 width="200px" height="200px" viewBox="0 0 200 200" enable-background="new 0 0 200 200" xml:space="preserve">
<g>
	<path fill="#E77832" d="M157.83,130.01c0.17,0,0.34-0.01,0.51-0.01c4.09,0,7.98,0.86,11.5,2.41c9.59-3.83,18-10.32,24.09-18.73
		l4.84-6.68l-7.94,2.23l-0.35,0.1c-9.66,2.59-19.75,1.26-28.4-3.74c-8.66-5-14.85-13.07-17.44-22.73
		c-2.59-9.66-1.26-19.75,3.74-28.4s13.07-14.85,22.73-17.44l8.35-2.13l-7.53-3.37c-11.43-5.11-24.39-6.14-36.5-2.9
		C115.48,33.97,100.37,50,96.06,69.99c1.86,0.67,3.65,1.47,5.38,2.39c3.51-18.44,17.24-33.31,35.48-38.19
		c8.31-2.23,17.07-2.21,25.32-0.01c-7.86,3.72-14.4,9.72-18.83,17.41c-5.77,9.99-7.3,21.63-4.31,32.77s10.13,20.45,20.12,26.22
		c7.69,4.44,16.35,6.37,25.02,5.66c-6.04,6.02-13.62,10.42-21.93,12.65c-1.42,0.38-2.91,0.7-4.44,0.96"/>
</g>
<g>
	<g>
		<g>
			<g>
				<path fill="#F0F0F0" d="M159.68,187.5l-119.92,0c-19.2-0.95-34.24-16.75-34.24-35.96c0-19.88,16.17-36.04,36.04-36.04
					c0.17,0,0.35,0,0.53,0c-0.43-2.38-0.65-4.77-0.65-7.13c0-22.49,18.29-40.79,40.78-40.79c19.67,0,36.27,13.88,39.99,32.82
					c2.52-0.74,5.13-1.11,7.79-1.11c15.43,0,27.98,12.56,27.98,27.99c0,0.9-0.05,1.81-0.14,2.73c0.17,0,0.34-0.01,0.51-0.01
					c15.87,0,28.78,12.91,28.78,28.79c0,15.36-12.03,27.96-27.38,28.7L159.68,187.5z M39.97,181.75h119.57
					c12.25-0.62,21.84-10.7,21.84-22.96c0-12.7-10.33-23.04-23.03-23.04c-1.08,0-2.2,0.1-3.54,0.3l-4.25,0.66l1.01-4.18
					c0.43-1.79,0.65-3.56,0.65-5.26c0-12.26-9.97-22.24-22.23-22.24c-3.09,0-6.1,0.64-8.94,1.89l-3.6,1.58l-0.42-3.91
					c-1.9-17.83-16.87-31.27-34.82-31.27c-19.31,0-35.03,15.72-35.03,35.04c0,3.15,0.45,6.35,1.35,9.52l1.18,4.18l-4.31-0.55
					c-1.46-0.19-2.68-0.27-3.84-0.27c-16.7,0-30.29,13.59-30.29,30.29C11.27,167.66,23.87,180.92,39.97,181.75z"/>
			</g>
		</g>
	</g>
</g>
</svg>
