<?xml version="1.0" encoding="utf-8"?>
<!-- Generator: Adobe Illustrator 26.0.2, SVG Export Plug-In . SVG Version: 6.00 Build 0)  -->
<svg version="1.1" id="Warstwa_1" xmlns="http://www.w3.org/2000/svg" xmlns:xlink="http://www.w3.org/1999/xlink" x="0px" y="0px"
	 width="200px" height="200px" viewBox="0 0 200 200" enable-background="new 0 0 200 200" xml:space="preserve">
<g>
	<rect x="122.28" y="15.31" fill="#E77832" width="5.75" height="15.29"/>
	
		<rect x="151.11" y="29.08" transform="matrix(0.4999 -0.8661 0.8661 0.4999 51.7129 153.4724)" fill="#E77832" width="15.29" height="5.75"/>
	<rect x="88.68" y="24.31" transform="matrix(0.866 -0.5 0.5 0.866 -3.7123 50.0546)" fill="#E77832" width="5.75" height="15.29"/>
	<rect x="175.71" y="53.68" transform="matrix(0.866 -0.5 0.5 0.866 -3.711 99.2559)" fill="#E77832" width="15.29" height="5.75"/>
	
		<rect x="64.08" y="48.91" transform="matrix(0.5 -0.866 0.866 0.5 -15.4965 86.2648)" fill="#E77832" width="5.75" height="15.29"/>
	<path fill="#E77832" d="M125.16,41.45c26.86,0,48.7,21.85,48.7,48.7c0,15.9-7.75,30.73-20.75,39.86c2.72,0.03,5.35,0.43,7.85,1.17
		c11.78-10.28,18.65-25.18,18.65-41.03c0-30.03-24.43-54.45-54.45-54.45c-19.3,0-36.79,10.05-46.56,26.18
		c2.17,0.09,4.3,0.33,6.39,0.71C93.94,49.5,108.82,41.45,125.16,41.45z"/>
	
		<rect x="180.48" y="116.11" transform="matrix(0.5 -0.866 0.866 0.5 -15.4991 220.6607)" fill="#E77832" width="5.75" height="15.29"/>
	<rect x="184.71" y="87.28" fill="#E77832" width="15.29" height="5.75"/>
</g>
<path fill="#F0F0F0" d="M154.16,187.5l-119.92,0C15.04,186.55,0,170.75,0,151.54c0-19.88,16.17-36.04,36.04-36.04
	c0.17,0,0.35,0,0.53,0c-0.43-2.38-0.65-4.77-0.65-7.13c0-22.49,18.29-40.79,40.78-40.79c19.67,0,36.27,13.88,39.99,32.82
	c2.52-0.74,5.13-1.11,7.79-1.11c15.43,0,27.98,12.56,27.98,27.99c0,0.9-0.05,1.81-0.14,2.73c0.17,0,0.34-0.01,0.51-0.01
	c15.87,0,28.78,12.91,28.78,28.79c0,15.36-12.03,27.96-27.38,28.7L154.16,187.5z M34.45,181.75h119.57
	c12.25-0.62,21.84-10.7,21.84-22.96c0-12.7-10.33-23.04-23.03-23.04c-1.08,0-2.2,0.1-3.54,0.3l-4.25,0.66l1.01-4.18
	c0.43-1.79,0.65-3.56,0.65-5.26c0-12.26-9.97-22.24-22.23-22.24c-3.09,0-6.1,0.64-8.94,1.89l-3.6,1.58l-0.42-3.91
	c-1.9-17.83-16.87-31.27-34.82-31.27c-19.31,0-35.03,15.72-35.03,35.04c0,3.15,0.45,6.35,1.35,9.52l1.18,4.18l-4.31-0.55
	c-1.46-0.19-2.68-0.27-3.84-0.27c-16.7,0-30.29,13.59-30.29,30.29C5.75,167.66,18.35,180.92,34.45,181.75z"/>
</svg>
