<?xml version="1.0" encoding="utf-8"?>
<!-- Generator: Adobe Illustrator 26.0.2, SVG Export Plug-In . SVG Version: 6.00 Build 0)  -->
<svg version="1.1" id="Warstwa_1" xmlns="http://www.w3.org/2000/svg" xmlns:xlink="http://www.w3.org/1999/xlink" x="0px" y="0px"
	 width="200px" height="200px" viewBox="0 0 200 200" enable-background="new 0 0 200 200" xml:space="preserve">
<path fill="#F0F0F0" d="M169.97,161.11l-132.44,0C16.49,160.06,0,142.75,0,121.69C0,99.9,17.72,82.18,39.5,82.18
	c0.31,0,0.63,0,0.94,0.01c-0.52-2.73-0.78-5.47-0.78-8.19c0-24.68,20.07-44.75,44.74-44.75c21.69,0,39.98,15.38,43.94,36.33
	c2.86-0.87,5.82-1.31,8.83-1.31c16.88,0,30.61,13.73,30.61,30.62c0,1.09-0.06,2.2-0.19,3.32c0.31-0.01,0.61-0.02,0.9-0.02
	c17.37,0,31.49,14.13,31.49,31.5c0,16.8-13.16,30.59-29.96,31.4L169.97,161.11z M37.75,155.36h132.08
	c13.7-0.69,24.42-11.95,24.42-25.66c0-14.2-11.55-25.75-25.74-25.75c-1.21,0-2.46,0.11-3.96,0.34l-4.25,0.66l1.01-4.18
	c0.48-2,0.73-3.98,0.73-5.88c0-13.71-11.15-24.87-24.86-24.87c-3.46,0-6.82,0.71-10,2.11l-3.6,1.59l-0.42-3.91
	C121.05,49.97,104.39,35,84.41,35c-21.5,0-38.99,17.5-38.99,39c0,3.51,0.5,7.07,1.5,10.6l1.18,4.18l-4.31-0.55
	c-1.63-0.21-2.99-0.3-4.28-0.3c-18.61,0-33.75,15.15-33.75,33.76C5.75,139.66,19.8,154.44,37.75,155.36z"/>
</svg>
