<?xml version="1.0" encoding="utf-8"?>
<!-- Generator: Adobe Illustrator 26.0.2, SVG Export Plug-In . SVG Version: 6.00 Build 0)  -->
<svg version="1.1" id="Warstwa_1" xmlns="http://www.w3.org/2000/svg" xmlns:xlink="http://www.w3.org/1999/xlink" x="0px" y="0px"
	 width="200px" height="200px" viewBox="0 0 200 200" enable-background="new 0 0 200 200" xml:space="preserve">
<path fill="#F0F0F0" d="M181.98,108.86c10.11-0.49,18.02-8.79,18.02-18.9c0-10.16-8.04-18.48-18.09-18.92
	c0.01-0.21,0.01-0.41,0.01-0.62c0-10.17-8.27-18.45-18.44-18.45c-1.35,0-2.69,0.15-4,0.44c-2.81-11.68-13.28-20.11-25.66-20.11
	c-10.09,0-18.88,5.68-23.31,14c1.47,1.52,2.84,3.15,4.09,4.87c3-7.66,10.48-13.12,19.22-13.12c10.61,0,19.44,7.92,20.53,18.41
	l0.41,3.92l3.61-1.59c1.62-0.72,3.34-1.08,5.1-1.08c7,0,12.69,5.7,12.69,12.7c0,0.97-0.13,1.98-0.38,3l-1.01,4.18l4.25-0.66
	c0.77-0.12,1.42-0.18,2.03-0.18c7.27,0,13.19,5.92,13.19,13.19c0,7.02-5.48,12.78-12.48,13.15h-16.22
	c-3.72-1.74-7.86-2.73-12.23-2.73c-0.17,0-0.35,0-0.53,0.01c0.1-0.92,0.14-1.84,0.14-2.75c0-15.48-12.59-28.07-28.07-28.07
	c-2.67,0-5.28,0.37-7.82,1.11c-3.73-19.01-20.38-32.93-40.12-32.93c-22.55,0-40.9,18.35-40.9,40.91c0,2.38,0.22,4.77,0.65,7.17
	c-0.18,0-0.36,0-0.54,0C16.21,85.83,0,102.05,0,121.99c0,19.27,15.08,35.11,34.34,36.07l120.31,0l0.07,0
	c15.4-0.74,27.46-13.39,27.46-28.79c0-7.96-3.23-15.17-8.46-20.4h8.18L181.98,108.86z M154.52,152.31H34.56
	c-16.16-0.84-28.81-14.14-28.81-30.32c0-16.76,13.64-30.4,30.4-30.4c1.16,0,2.38,0.09,3.86,0.27l4.31,0.55l-1.18-4.18
	c-0.9-3.18-1.35-6.39-1.35-9.55c0-19.39,15.77-35.16,35.15-35.16c18.01,0,33.03,13.49,34.94,31.39l0.42,3.91l3.6-1.58
	c2.86-1.26,5.88-1.89,8.98-1.89c12.31,0,22.32,10.01,22.32,22.32c0,1.71-0.22,3.48-0.66,5.28l-1.02,4.18l4.25-0.66
	c1.34-0.21,2.47-0.3,3.56-0.3c12.75,0,23.12,10.37,23.12,23.12C176.44,141.57,166.81,151.68,154.52,152.31z"/>
</svg>
