<?xml version="1.0" encoding="utf-8"?>
<!-- Generator: Adobe Illustrator 26.0.2, SVG Export Plug-In . SVG Version: 6.00 Build 0)  -->
<svg version="1.1" id="Warstwa_1" xmlns="http://www.w3.org/2000/svg" xmlns:xlink="http://www.w3.org/1999/xlink" x="0px" y="0px"
	 width="200px" height="200px" viewBox="0 0 200 200" enable-background="new 0 0 200 200" xml:space="preserve">
<path fill="#F0F0F0" d="M181.98,90.21c10.11-0.49,18.02-8.79,18.02-18.9c0-10.16-8.04-18.48-18.09-18.92
	c0.01-0.21,0.01-0.41,0.01-0.62c0-10.17-8.27-18.45-18.44-18.45c-1.35,0-2.69,0.15-4,0.44c-2.81-11.68-13.28-20.11-25.66-20.11
	c-10.09,0-18.87,5.68-23.31,14c1.47,1.52,2.84,3.14,4.1,4.85c3.01-7.65,10.48-13.1,19.21-13.1c10.61,0,19.44,7.92,20.53,18.41
	l0.41,3.92l3.61-1.59c1.62-0.72,3.34-1.08,5.1-1.08c7,0,12.69,5.7,12.69,12.7c0,0.98-0.12,1.96-0.38,3l-1.01,4.18l4.25-0.66
	c0.77-0.12,1.42-0.18,2.03-0.18c7.27,0,13.19,5.92,13.19,13.19c0,7.02-5.48,12.78-12.48,13.15h-16.22
	c-3.72-1.74-7.86-2.73-12.23-2.73c-0.17,0-0.35,0-0.53,0.01c0.1-0.92,0.14-1.84,0.14-2.75c0-15.48-12.59-28.07-28.07-28.07
	c-2.67,0-5.28,0.37-7.82,1.11c-3.73-19.01-20.38-32.93-40.12-32.93c-22.55,0-40.9,18.35-40.9,40.91c0,2.38,0.22,4.77,0.65,7.17
	c-0.18,0-0.36,0-0.54,0C16.21,67.18,0,83.4,0,103.34c0,19.27,15.08,35.11,34.34,36.07l9.36,0c0.31-1.9,0.8-3.83,1.43-5.75H34.56
	c-16.16-0.84-28.81-14.14-28.81-30.32c0-16.76,13.64-30.4,30.4-30.4c1.16,0,2.38,0.09,3.86,0.27l4.31,0.55l-1.18-4.18
	c-0.9-3.18-1.35-6.39-1.35-9.55c0-19.39,15.77-35.16,35.15-35.16c18.01,0,33.03,13.49,34.94,31.39l0.42,3.91l3.6-1.58
	c2.86-1.26,5.88-1.89,8.98-1.89c12.31,0,22.32,10.01,22.32,22.32c0,1.71-0.22,3.48-0.66,5.28l-1.02,4.18l4.25-0.66
	c1.34-0.21,2.47-0.3,3.56-0.3c12.75,0,23.12,10.37,23.12,23.12c0,12.31-9.62,22.41-21.92,23.04h-62.7c0.74,1.94,1.32,3.87,1.7,5.75
	h61.14l0.07,0c15.4-0.74,27.46-13.39,27.46-28.79c0-7.96-3.23-15.17-8.46-20.4h8.18L181.98,90.21z"/>
<path fill="#E77832" d="M106.93,186.33c-6.97,0-14.38-5.28-14.38-15.06c0-8.85,9.95-20.61,12.49-22.82l1.88-1.64l1.88,1.64
	c2.54,2.21,12.49,13.97,12.49,22.82C121.31,181.06,113.9,186.33,106.93,186.33z M106.93,154.8c-3.22,3.77-8.63,11.4-8.63,16.48
	c0,6.83,5.16,9.31,8.63,9.31s8.63-2.48,8.63-9.31C115.56,166.2,110.15,158.56,106.93,154.8z M82.52,143.74h-5.75
	c0,5.95-4.71,6.12-5.25,6.12v5.75C75.94,155.61,82.52,152.45,82.52,143.74z M71.52,167.34c-10.88,0-22.45-8.27-22.45-23.6
	c0-14.4,16.93-34.16,20.57-37.31l1.88-1.63l1.88,1.63c3.63,3.15,20.56,22.92,20.56,37.31C93.97,159.07,82.4,167.34,71.52,167.34z
	 M71.52,112.65c-5.38,5.82-16.7,20.91-16.7,31.09c0,11.6,8.6,17.85,16.7,17.85s16.7-6.26,16.7-17.85
	C88.22,133.56,76.9,118.47,71.52,112.65z"/>
</svg>
