<?xml version="1.0" encoding="utf-8"?>
<!-- Generator: Adobe Illustrator 26.0.2, SVG Export Plug-In . SVG Version: 6.00 Build 0)  -->
<svg version="1.1" id="Warstwa_1" xmlns="http://www.w3.org/2000/svg" xmlns:xlink="http://www.w3.org/1999/xlink" x="0px" y="0px"
	 width="200px" height="200px" viewBox="0 0 200 200" enable-background="new 0 0 200 200" xml:space="preserve">
<polygon fill="#E77832" points="110.83,141.8 101.03,141.8 106.09,136.73 102.03,132.67 92.9,141.8 80.43,141.8 86.66,131 
	99.14,127.66 97.65,122.1 90.73,123.96 95.63,115.47 90.65,112.59 85.75,121.08 83.89,114.16 78.34,115.65 81.68,128.12 
	75.45,138.92 69.21,128.12 72.55,115.65 67,114.16 65.14,121.08 60.24,112.59 55.26,115.47 60.16,123.96 53.24,122.1 51.76,127.66 
	64.23,131 70.47,141.8 58,141.8 48.86,132.67 44.8,136.73 49.86,141.8 40.06,141.8 40.06,147.55 49.86,147.55 44.8,152.62 
	48.86,156.68 58,147.55 70.47,147.55 64.23,158.35 51.76,161.69 53.24,167.24 60.16,165.39 55.26,173.88 60.24,176.76 65.14,168.27 
	67,175.19 72.55,173.7 69.21,161.22 75.45,150.42 81.68,161.22 78.34,173.7 83.89,175.19 85.75,168.27 90.65,176.76 95.63,173.88 
	90.73,165.39 97.65,167.24 99.14,161.69 86.66,158.35 80.43,147.55 92.9,147.55 102.03,156.68 106.09,152.62 101.03,147.55 
	110.83,147.55 "/>
<path fill="#F0F0F0" d="M181.98,98.35c10.11-0.49,18.02-8.79,18.02-18.9c0-10.16-8.04-18.48-18.09-18.92
	c0.01-0.21,0.01-0.41,0.01-0.62c0-10.17-8.27-18.45-18.44-18.45c-1.35,0-2.69,0.15-4,0.44c-2.81-11.68-13.28-20.11-25.66-20.11
	c-10.1,0-18.88,5.68-23.32,14c1.47,1.52,2.84,3.15,4.09,4.87c3-7.67,10.48-13.12,19.22-13.12c10.61,0,19.44,7.92,20.53,18.41
	l0.41,3.92l3.61-1.59c1.62-0.71,3.34-1.08,5.1-1.08c7,0,12.69,5.7,12.69,12.7c0,0.97-0.13,1.98-0.38,3l-1.01,4.18l4.25-0.66
	c0.77-0.12,1.42-0.18,2.03-0.18c7.27,0,13.19,5.92,13.19,13.19c0,7.02-5.48,12.78-12.48,13.15h-16.22
	c-3.72-1.74-7.86-2.73-12.23-2.73c-0.17,0-0.35,0-0.53,0.01c0.1-0.92,0.14-1.84,0.14-2.75c0-15.48-12.59-28.07-28.07-28.07
	c-2.67,0-5.28,0.37-7.82,1.11c-3.73-19.01-20.38-32.93-40.12-32.93c-22.55,0-40.9,18.35-40.9,40.91c0,2.38,0.22,4.77,0.65,7.17
	c-0.18,0-0.36,0-0.54,0C16.21,75.33,0,91.54,0,111.48c0,19.26,15.07,35.09,34.31,36.06v-5.76c-16.04-0.96-28.56-14.2-28.56-30.3
	c0-16.76,13.64-30.4,30.4-30.4c1.16,0,2.38,0.09,3.86,0.27l4.31,0.55l-1.18-4.18c-0.9-3.18-1.35-6.39-1.35-9.55
	C41.78,48.78,57.55,33,76.94,33c18.01,0,33.03,13.49,34.94,31.39l0.42,3.91l3.6-1.58c2.86-1.26,5.88-1.89,8.98-1.89
	c12.31,0,22.32,10.01,22.32,22.32c0,1.71-0.22,3.48-0.66,5.28l-1.02,4.18l4.25-0.66c1.34-0.21,2.47-0.3,3.56-0.3
	c12.75,0,23.12,10.37,23.12,23.12c0,12.31-9.62,22.41-21.92,23.04h-43.68v5.75h43.83l0.07,0c15.4-0.74,27.46-13.39,27.46-28.79
	c0-7.96-3.23-15.17-8.46-20.4h8.18L181.98,98.35z"/>
</svg>
