<?xml version="1.0" encoding="utf-8"?>
<!-- Generator: Adobe Illustrator 26.0.2, SVG Export Plug-In . SVG Version: 6.00 Build 0)  -->
<svg version="1.1" id="Warstwa_1" xmlns="http://www.w3.org/2000/svg" xmlns:xlink="http://www.w3.org/1999/xlink" x="0px" y="0px"
	 width="200px" height="200px" viewBox="0 0 200 200" enable-background="new 0 0 200 200" xml:space="preserve">
<path fill="#F0F0F0" d="M173.38,87.67c-0.07,0-0.14,0-0.21,0c0.07-0.76,0.11-1.51,0.11-2.26c0-14.27-11.61-25.89-25.88-25.89
	c-2.37,0-4.69,0.32-6.95,0.95c-3.53-17.34-18.78-30.01-36.83-30.01c-20.74,0-37.61,16.87-37.61,37.61c0,2.09,0.18,4.19,0.55,6.29
	c-0.06,0-0.13,0-0.19,0c-18.34,0-33.26,14.92-33.26,33.27c0,4.48,0.91,8.89,2.64,12.98h6.37c-2.13-3.97-3.27-8.43-3.27-12.98
	c0-15.17,12.34-27.52,27.51-27.52c1.05,0,2.16,0.08,3.49,0.25l4.31,0.55l-1.18-4.18c-0.81-2.88-1.22-5.79-1.22-8.66
	c0-17.57,14.29-31.86,31.86-31.86c16.32,0,29.94,12.23,31.67,28.44l0.42,3.91l3.6-1.59c2.58-1.13,5.3-1.71,8.1-1.71
	c11.1,0,20.13,9.03,20.13,20.14c0,1.54-0.2,3.14-0.59,4.76l-1.01,4.17l4.25-0.66c1.21-0.19,2.24-0.27,3.21-0.27
	c11.5,0,20.87,9.36,20.87,20.87c0,11.1-8.68,20.23-19.78,20.79H92.96v5.75h81.65l0.07,0c14.2-0.68,25.32-12.34,25.32-26.54
	C200,99.61,188.06,87.67,173.38,87.67z"/>
<path fill="#E77832" d="M110.08,155.18H22.87v-5.75h87.21V155.18z M80.01,163.78H52.94v5.75h27.06V163.78z M87.21,106.15H45.74v5.75
	h41.47V106.15z M87.21,135.08H0v5.75h87.21V135.08z M110.08,120.62H22.87v5.75h87.21V120.62z"/>
</svg>
