<?xml version="1.0" encoding="utf-8"?>
<!-- Generator: Adobe Illustrator 26.0.2, SVG Export Plug-In . SVG Version: 6.00 Build 0)  -->
<svg version="1.1" id="Warstwa_1" xmlns="http://www.w3.org/2000/svg" xmlns:xlink="http://www.w3.org/1999/xlink" x="0px" y="0px"
	 viewBox="0 0 40 40" style="enable-background:new 0 0 40 40;" xml:space="preserve">
<style type="text/css">
	.st0{fill:#E77832;}
	.st1{fill:none;stroke:#000000;stroke-width:5.75;stroke-miterlimit:10;}
	.st2{fill-rule:evenodd;clip-rule:evenodd;fill:none;stroke:#000000;stroke-width:5.75;stroke-miterlimit:10;}
	.st3{fill:#F0F0F0;}
	.st4{fill:none;stroke:#000000;stroke-width:3;stroke-linecap:square;stroke-miterlimit:10;}
	.st5{fill:none;stroke:#000000;stroke-width:3;stroke-miterlimit:10;}
</style>
<path class="st0" d="M20,39.98c-6.92,0-14.28-5.27-14.28-15.03c0-9.27,10.95-22.03,13.29-24.07L20,0.02l0.98,0.85
	c2.35,2.04,13.29,14.8,13.29,24.07C34.28,34.71,26.92,39.98,20,39.98z M20,4.11C16.57,7.73,8.72,18.04,8.72,24.95
	c0,7.81,5.81,12.03,11.28,12.03s11.28-4.22,11.28-12.03C31.28,18.04,23.43,7.73,20,4.11z M28.23,24.95v-1.5h-3v1.5
	c0,5.89-5.02,5.96-5.23,5.96h-1.5v3H20C23.31,33.9,28.23,31.52,28.23,24.95z"/>
</svg>
