<?xml version="1.0" encoding="utf-8"?>
<!-- Generator: Adobe Illustrator 26.0.2, SVG Export Plug-In . SVG Version: 6.00 Build 0)  -->
<svg version="1.1" id="Warstwa_1" xmlns="http://www.w3.org/2000/svg" xmlns:xlink="http://www.w3.org/1999/xlink" x="0px" y="0px"
	 viewBox="0 0 40 40" style="enable-background:new 0 0 40 40;" xml:space="preserve">
<style type="text/css">
	.st0{fill:#E77832;}
	.st1{fill:none;stroke:#000000;stroke-width:5.75;stroke-miterlimit:10;}
	.st2{fill-rule:evenodd;clip-rule:evenodd;fill:none;stroke:#000000;stroke-width:5.75;stroke-miterlimit:10;}
	.st3{fill:#F0F0F0;}
	.st4{fill:none;stroke:#000000;stroke-width:3;stroke-linecap:square;stroke-miterlimit:10;}
	.st5{fill:none;stroke:#000000;stroke-width:3;stroke-miterlimit:10;}
</style>
<path class="st0" d="M21.49,12.53h-3V7.78h3V12.53z M30.91,12.12l-2.35-1.87l-2.97,3.72l2.35,1.87L30.91,12.12z M35.56,21.39
	l-0.67-2.92l-4.64,1.06l0.67,2.92L35.56,21.39z M34.72,28.83l-4.28-2.06l-1.3,2.7l4.28,2.06L34.72,28.83z M14.39,13.97l-2.96-3.72
	l-2.35,1.87l2.96,3.72L14.39,13.97z M9.73,19.52l-4.64-1.06l-0.67,2.92l4.64,1.06L9.73,19.52z M10.85,29.47l-1.3-2.7l-4.28,2.06
	l1.3,2.7L10.85,29.47z M35.5,36.04C38.4,32.49,40,28,40,23.4c0-11.03-8.97-20-20-20s-20,8.97-20,20c0,4.6,1.6,9.08,4.5,12.64
	l0.45,0.55h30.09L35.5,36.04z M3,23.4c0-9.37,7.63-17,17-17s17,7.63,17,17c0,3.67-1.2,7.26-3.4,10.19H6.4C4.2,30.67,3,27.08,3,23.4z
	 M24.98,22.84c0.15,1.33-0.23,2.64-1.06,3.69c-0.99,1.24-2.45,1.88-3.92,1.88c-1.1,0-2.2-0.36-3.12-1.09
	c-2.16-1.72-2.52-4.88-0.79-7.04c0.83-1.05,2.03-1.71,3.36-1.85c0.82-0.09,1.61,0.04,2.36,0.32l2.74-3.44l2.35,1.87l-2.74,3.44
	C24.58,21.28,24.89,22.03,24.98,22.84z M22,23.18c-0.06-0.53-0.32-1.01-0.74-1.35c-0.36-0.29-0.8-0.44-1.25-0.44
	c-0.08,0-0.15,0-0.23,0.01c-0.53,0.06-1.01,0.32-1.35,0.74c-0.33,0.42-0.49,0.95-0.43,1.48c0.06,0.53,0.32,1.01,0.74,1.35
	c0.42,0.33,0.95,0.48,1.48,0.43c0.53-0.06,1.01-0.32,1.35-0.74S22.06,23.71,22,23.18z"/>
</svg>
