<?xml version="1.0" encoding="utf-8"?>
<!-- Generator: Adobe Illustrator 26.0.2, SVG Export Plug-In . SVG Version: 6.00 Build 0)  -->
<svg version="1.1" id="Warstwa_1" xmlns="http://www.w3.org/2000/svg" xmlns:xlink="http://www.w3.org/1999/xlink" x="0px" y="0px"
	 viewBox="0 0 60 60" style="enable-background:new 0 0 60 60;" xml:space="preserve">
<style type="text/css">
	.st0{fill:#E77832;}
	.st1{fill:none;stroke:#000000;stroke-width:5.75;stroke-miterlimit:10;}
	.st2{fill-rule:evenodd;clip-rule:evenodd;fill:none;stroke:#000000;stroke-width:5.75;stroke-miterlimit:10;}
	.st3{fill:#F0F0F0;}
	.st4{fill:none;stroke:#000000;stroke-width:3;stroke-linecap:square;stroke-miterlimit:10;}
	.st5{fill:none;stroke:#000000;stroke-width:3;stroke-miterlimit:10;}
	
		.st6{fill-rule:evenodd;clip-rule:evenodd;fill:none;stroke:#000000;stroke-width:5.75;stroke-linecap:square;stroke-miterlimit:10;}
</style>
<path class="st3" d="M24.87,5.75c5.11,0,9.91,1.99,13.52,5.6c3.61,3.61,5.6,8.41,5.6,13.52s-1.99,9.91-5.6,13.52
	c-3.61,3.61-8.41,5.6-13.52,5.6s-9.91-1.99-13.52-5.6c-7.46-7.46-7.46-19.59,0-27.05C14.96,7.74,19.77,5.75,24.87,5.75 M24.87,0
	C18.51,0,12.14,2.43,7.29,7.29c-9.71,9.71-9.71,25.46,0,35.18c4.86,4.86,11.22,7.29,17.59,7.29s12.73-2.43,17.59-7.29
	c9.71-9.71,9.71-25.46,0-35.18C37.61,2.43,31.24,0,24.87,0L24.87,0z M59.82,55.75L48.6,44.53l-4.07,4.07l11.22,11.22L59.82,55.75z"
	/>
</svg>
