<?xml version="1.0" encoding="utf-8"?>
<!-- Generator: Adobe Illustrator 26.0.2, SVG Export Plug-In . SVG Version: 6.00 Build 0)  -->
<svg version="1.1" id="Warstwa_1" xmlns="http://www.w3.org/2000/svg" xmlns:xlink="http://www.w3.org/1999/xlink" x="0px" y="0px"
	 viewBox="0 0 40 40" style="enable-background:new 0 0 40 40;" xml:space="preserve">
<style type="text/css">
	.st0{fill:#E77832;}
	.st1{fill:none;stroke:#000000;stroke-width:5.75;stroke-miterlimit:10;}
	.st2{fill-rule:evenodd;clip-rule:evenodd;fill:none;stroke:#000000;stroke-width:5.75;stroke-miterlimit:10;}
	.st3{fill:#F0F0F0;}
	.st4{fill:none;stroke:#000000;stroke-width:3;stroke-linecap:square;stroke-miterlimit:10;}
	.st5{fill:none;stroke:#000000;stroke-width:3;stroke-miterlimit:10;}
	
		.st6{fill-rule:evenodd;clip-rule:evenodd;fill:none;stroke:#000000;stroke-width:5.75;stroke-linecap:square;stroke-miterlimit:10;}
</style>
<path class="st3" d="M40,22.55v-5.11l-4.79-0.3c-0.39-2.07-1.2-4.07-2.44-5.88l3.18-3.6l-3.61-3.61l-3.6,3.18
	c-1.8-1.24-3.81-2.05-5.88-2.44L22.55,0h-5.11l-0.3,4.79c-2.07,0.39-4.07,1.2-5.88,2.44l-3.6-3.18L4.05,7.67l3.18,3.6
	c-1.24,1.8-2.05,3.81-2.44,5.88L0,17.45v5.11l4.79,0.3c0.39,2.07,1.2,4.08,2.44,5.88l-3.18,3.6l3.61,3.61l3.6-3.18
	c1.8,1.24,3.81,2.05,5.88,2.44l0.3,4.79h5.11l0.3-4.79c2.07-0.39,4.08-1.2,5.88-2.44l3.6,3.18l3.61-3.61l-3.18-3.6
	c1.24-1.8,2.05-3.81,2.44-5.88L40,22.55z M20,29.73c-2.6,0-5.04-1.01-6.88-2.85c-1.84-1.84-2.85-4.28-2.85-6.88s1.01-5.04,2.85-6.88
	c1.84-1.84,4.28-2.85,6.88-2.85s5.04,1.01,6.88,2.85c1.84,1.84,2.85,4.28,2.85,6.88s-1.01,5.04-2.85,6.88
	C25.04,28.72,22.6,29.73,20,29.73z"/>
</svg>
