<?xml version="1.0" encoding="utf-8"?>
<!-- Generator: Adobe Illustrator 26.0.2, SVG Export Plug-In . SVG Version: 6.00 Build 0)  -->
<svg version="1.1" id="Warstwa_1" xmlns="http://www.w3.org/2000/svg" xmlns:xlink="http://www.w3.org/1999/xlink" x="0px" y="0px"
	 viewBox="0 0 60 60" style="enable-background:new 0 0 60 60;" xml:space="preserve">
<style type="text/css">
	.st0{fill:#E77832;}
	.st1{fill:none;stroke:#000000;stroke-width:5.75;stroke-miterlimit:10;}
	.st2{fill-rule:evenodd;clip-rule:evenodd;fill:none;stroke:#000000;stroke-width:5.75;stroke-miterlimit:10;}
	.st3{fill:#F0F0F0;}
	.st4{fill:none;stroke:#000000;stroke-width:3;stroke-linecap:square;stroke-miterlimit:10;}
	.st5{fill:none;stroke:#000000;stroke-width:3;stroke-miterlimit:10;}
	
		.st6{fill-rule:evenodd;clip-rule:evenodd;fill:none;stroke:#000000;stroke-width:5.75;stroke-linecap:square;stroke-miterlimit:10;}
</style>
<g>
	<path class="st3" d="M60,32.31v-4.62l-5.53-0.62c-0.28-2.35-0.9-4.66-1.85-6.86l4.49-3.3l-2.31-4l-5.14,2.25
		c-0.68-0.9-1.4-1.77-2.22-2.59c-0.88-0.88-1.83-1.65-2.8-2.38l2.26-5.17l-4-2.31l-3.36,4.56c-2.13-0.89-4.36-1.47-6.62-1.74
		L32.31,0h-4.62l-0.62,5.53c-2.31,0.27-4.58,0.87-6.75,1.79l-3.35-4.55l-4,2.31l2.27,5.19c-0.93,0.7-1.84,1.44-2.69,2.29
		c-0.82,0.82-1.54,1.69-2.22,2.59l-5.26-2.3l-2.31,4l4.6,3.39c-0.95,2.2-1.56,4.51-1.84,6.85L0,27.69v4.62l5.53,0.62
		c0.27,2.29,0.86,4.54,1.77,6.7l-4.46,3.28l2.31,4l5.07-2.22c0.71,0.96,1.47,1.89,2.34,2.75c0.81,0.81,1.67,1.52,2.55,2.19
		l-2.2,5.03l4,2.31l3.23-4.38c2.23,0.97,4.56,1.6,6.94,1.88L27.69,60h4.62l0.62-5.53c2.33-0.28,4.62-0.88,6.81-1.83l3.24,4.39
		l4-2.31l-2.19-5.02c0.92-0.69,1.82-1.43,2.66-2.27c0.87-0.87,1.64-1.81,2.35-2.77l4.94,2.16l2.31-4l-4.35-3.2
		c0.92-2.16,1.5-4.42,1.78-6.71L60,32.31z M48.92,30c0,5.05-1.97,9.8-5.54,13.38c-3.57,3.57-8.32,5.54-13.38,5.54
		s-9.8-1.97-13.38-5.54c-3.57-3.57-5.54-8.32-5.54-13.38s1.97-9.8,5.54-13.38c3.57-3.57,8.32-5.54,13.38-5.54s9.8,1.97,13.38,5.54
		C46.95,20.2,48.92,24.95,48.92,30z"/>
</g>
<path class="st3" d="M30,18.15c-3.03,0-6.07,1.16-8.38,3.47c-4.63,4.63-4.63,12.13,0,16.76c2.31,2.31,5.35,3.47,8.38,3.47
	s6.07-1.16,8.38-3.47c4.63-4.63,4.63-12.13,0-16.76C36.07,19.31,33.03,18.15,30,18.15z M34.32,34.32c-1.15,1.15-2.69,1.79-4.32,1.79
	s-3.16-0.63-4.32-1.79c-2.38-2.38-2.38-6.25,0-8.63c1.15-1.15,2.69-1.79,4.32-1.79s3.16,0.63,4.32,1.79
	c1.15,1.15,1.79,2.69,1.79,4.32C36.1,31.63,35.47,33.16,34.32,34.32z"/>
</svg>
