<?xml version="1.0" encoding="utf-8"?>
<!-- Generator: Adobe Illustrator 26.0.2, SVG Export Plug-In . SVG Version: 6.00 Build 0)  -->
<svg version="1.1" id="Warstwa_1" xmlns="http://www.w3.org/2000/svg" xmlns:xlink="http://www.w3.org/1999/xlink" x="0px" y="0px"
	 width="40px" height="40px" viewBox="0 0 40 40" style="enable-background:new 0 0 40 40;" xml:space="preserve">
<style type="text/css">
	.st0{fill:#E77931;}
</style>
<path class="st0" d="M34.3,33.1c3-3.4,4.8-7.8,4.8-12.6c0-9.4-6.8-17.2-15.7-18.8l1.5,3.5c6.5,2.1,11.2,8.2,11.2,15.3
	c0,3.6-1.2,6.9-3.2,9.5L20,0.4L7.1,30c-2-2.7-3.2-6-3.2-9.5c0-7.2,4.7-13.2,11.2-15.3l1.5-3.5C7.7,3.3,0.9,11.1,0.9,20.5
	c0,4.9,1.8,9.3,4.8,12.6l-1.2,2.7l2.9-1c3.4,2.9,7.8,4.8,12.6,4.8s9.2-1.8,12.6-4.8l2.9,1L34.3,33.1z M20,7.9l10,22.8l-9-3.1l-1-0.3
	l-1,0.3l-9,3.1L20,7.9z M20,36.6c-3.4,0-6.6-1.1-9.2-2.9l9.2-3.2l9.2,3.2C26.6,35.5,23.4,36.6,20,36.6z"/>
</svg>
