<?xml version="1.0" encoding="utf-8"?>
<!-- Generator: Adobe Illustrator 26.0.2, SVG Export Plug-In . SVG Version: 6.00 Build 0)  -->
<svg version="1.1" id="Warstwa_1" xmlns="http://www.w3.org/2000/svg" xmlns:xlink="http://www.w3.org/1999/xlink" x="0px" y="0px"
	 viewBox="0 0 40 40" style="enable-background:new 0 0 40 40;" xml:space="preserve">
<style type="text/css">
	.st0{fill:#E77832;}
	.st1{fill:none;stroke:#000000;stroke-width:5.75;stroke-miterlimit:10;}
	.st2{fill-rule:evenodd;clip-rule:evenodd;fill:none;stroke:#000000;stroke-width:5.75;stroke-miterlimit:10;}
	.st3{fill:#F0F0F0;}
	.st4{fill:none;stroke:#000000;stroke-width:3;stroke-linecap:square;stroke-miterlimit:10;}
	.st5{fill:none;stroke:#000000;stroke-width:3;stroke-miterlimit:10;}
</style>
<path class="st0" d="M2.52,27.07h-1.5v-3h1.5c7.65,0,12.05-2.6,16.71-5.36c4.8-2.84,9.77-5.78,18.24-5.78h1.5v3h-1.5
	c-7.65,0-12.05,2.6-16.71,5.36C15.96,24.13,11,27.07,2.52,27.07z M20.76,34.21c4.66-2.76,9.06-5.36,16.71-5.36h1.5v-3h-1.5
	c-8.47,0-13.44,2.94-18.24,5.78c-4.66,2.76-9.06,5.36-16.71,5.36h-1.5v3h1.5C11,39.98,15.96,37.04,20.76,34.21z M20.76,8.38
	c4.66-2.76,9.06-5.36,16.71-5.36h1.5v-3h-1.5c-8.47,0-13.44,2.94-18.24,5.78c-4.66,2.76-9.06,5.36-16.71,5.36h-1.5v3h1.5
	C11,14.15,15.96,11.22,20.76,8.38z"/>
</svg>
